PathFileType	4	(X/Y/Z)	Patient4_TMGait_0pt3_01_right_10.trc.trc
DataRate	CameraRate	NumFrames	NumMarkers	Units	OrigDataRate	OrigDataStartFrame	OrigNumFrames
51.660516605166	51.660516605166	6	33	mm	51.660516605166	36	       141
Frame#	Time	Sacral			L.Shoulder			Chest			R.Shoulder			Neck			R.ASIS			L.ASIS			R.Thigh.Superior			R.Thigh.Lateral			R.Thigh.Inferior			R.Patella			L.Thigh.Superior			L.Thigh.Lateral			L.Thigh.Inferior			L.Patella			L.Shank.Superior			L.Shank.Lateral			L.Shank.Inferior			R.Shank.Superior			R.Shank.Lateral			R.Shank.Inferior			R.Heel			R.Midfoot.Superior			R.Midfoot.Lateral			R.Toe			L.Heel			L.Midfoot.Lateral			L.Midfoot.Superior			L.Toe			L.Elbow			L.Wrist			R.Elbow			R.Wrist			
		X1	Y1	Z1	X2	Y2	Z2	X3	Y3	Z3	X4	Y4	Z4	X5	Y5	Z5	X6	Y6	Z6	X7	Y7	Z7	X8	Y8	Z8	X9	Y9	Z9	X10	Y10	Z10	X11	Y11	Z11	X12	Y12	Z12	X13	Y13	Z13	X14	Y14	Z14	X15	Y15	Z15	X16	Y16	Z16	X17	Y17	Z17	X18	Y18	Z18	X19	Y19	Z19	X20	Y20	Z20	X21	Y21	Z21	X22	Y22	Z22	X23	Y23	Z23	X24	Y24	Z24	X25	Y25	Z25	X26	Y26	Z26	X27	Y27	Z27	X28	Y28	Z28	X29	Y29	Z29	X30	Y30	Z30	X31	Y31	Z31	X32	Y32	Z32	X33	Y33	Z33	

36	18.117500000000	647.011572941066	997.642396650828	492.902814334439	842.243145122656	1436.530597915185	342.642786165851	923.618976983605	1366.444656086467	513.137343396975	815.638574009186	1436.969720298592	674.788374200262	803.590726153306	1491.221608311279	503.481367253274	866.075900786409	938.383142312164	635.503179124161	877.945062678401	958.458366765829	361.353205056814	925.691757500861	746.885436375819	603.311988784723	852.188360248789	628.917493793032	655.430170230107	939.457547418790	585.687258568542	579.715954109108	947.582618674352	495.875639415220	585.432646014319	896.048842089888	730.433239414479	379.222142055467	796.225681826357	626.832913544964	304.794088159377	868.462821625187	534.801310383896	364.625957761202	856.384193548144	456.306217180182	361.849570456345	798.951864787128	398.753930633631	349.743284762214	670.832792237994	330.970731159705	296.862401822437	681.747599211297	200.723640903918	349.537460158156	919.099447275905	404.777755028601	588.559050601196	845.272450228766	299.275706793966	644.952844270906	891.267580909227	206.200872714971	582.932876800776	759.053664909941	41.930093654663	544.014382994959	927.628974073169	97.811300828175	590.170104012342	838.126576122610	36.428115484178	623.675208856804	1045.837391151199	48.471139032721	624.578692335617	511.543846042996	86.324584480867	386.341003632947	576.162961131555	66.114070869742	301.751491451343	673.422862560963	106.336918941146	321.852377386030	780.731827940742	34.146503837434	282.344121871482	906.243571310711	1178.684203169425	110.277163004423	1145.423157140790	1182.242848760955	10.538426726994	683.099799545208	1117.171907685348	781.599205348023	721.971504560003	860.062333876285	810.148227372189	
37	18.136857142857	646.689018171649	998.256312950443	498.444368362698	839.911283127520	1437.320217603155	346.992042864656	922.700933924039	1367.528938240912	517.023742947759	815.610804035370	1437.876023252871	679.323009512946	802.257754273639	1492.102595059335	507.973195413272	866.534153854839	939.133120330614	639.870412632134	877.043827069068	959.469856531546	365.779935230049	924.048241379819	746.127728706183	607.253350732714	849.028434748271	628.837612550322	658.771211318337	935.588850887186	585.019445593235	582.700061230821	942.572375705421	495.372892960410	587.799385239865	899.671497255465	732.730292584948	383.450735474009	803.114414741525	627.378690984211	308.404848689712	877.642744868432	536.293561006622	368.107892367793	866.397921931068	456.495092502345	364.063670684946	806.786714144619	399.598240029955	351.940152038267	676.374040969904	336.357305902845	299.176271711965	683.719614750077	205.310624855883	350.381922080041	913.987885830915	404.479214219184	590.593220910863	840.024114277584	298.821723317419	646.446826992246	885.807985474179	205.999796959997	583.836399969272	753.434343023150	41.905720685229	544.169301168920	922.082033645262	97.706228214465	590.482166565039	832.501460661063	36.402675634493	623.894130673178	1040.267074269111	48.139698809133	624.733593405944	509.819009648344	97.627868439406	386.677034197122	573.443583425468	74.638204768943	302.046759122168	672.416513381618	110.034809581943	322.110251962919	775.689019484476	33.515298442262	282.620056228979	901.620774706306	1175.587173921264	117.153571933237	1141.449967497038	1175.051472442086	18.838942122390	689.138165315211	1115.797012948263	788.649988340000	737.756356119148	860.480919761209	816.806448961401	
38	18.156214285714	646.204909431271	998.828985477291	503.897067598698	837.237330311354	1438.067004185263	351.114860086533	921.648532875358	1368.530818218009	520.564381073982	815.670957648985	1438.653966943236	683.661576099482	800.819204882722	1492.922149959826	512.301256184218	866.952838174634	939.803221426529	643.878377581669	875.857519477267	960.465600248015	369.826272297569	922.256392350460	745.376534378690	610.866962423296	845.739525272441	628.767297983631	661.924149909901	931.578639466026	584.354687513796	585.519420586345	937.394597597360	494.878761441328	590.077774884125	903.387364063502	735.292520104515	387.538161656244	810.469973582256	628.077280078061	311.840717026049	887.311216384417	538.146541112608	371.617318380295	876.979420658836	457.067846313235	366.336115462711	815.304023091619	400.697023256859	354.137534692500	682.667724046690	342.104670223267	301.565543005138	686.383496539573	210.381726820137	351.386771790617	908.739602580531	404.189816805595	592.562665316981	834.636958840593	298.394485542022	647.918694140606	880.259676553555	205.812487108320	584.725105898968	747.761129388377	41.886808775112	544.304800448955	916.459231943426	97.562531626357	590.730661374756	826.819372931211	36.378059206615	624.075882924343	1034.637155348229	47.805973708189	624.879002138188	508.904674610433	109.585966313427	387.284327492214	571.419314144012	84.038698247688	302.504235699124	672.017553608698	114.415096436153	322.554368187577	771.056348393729	33.234507636058	282.797460618418	896.117318807773	1172.010523490849	124.134239648911	1136.654137923798	1166.751948619528	27.647197062546	695.947087181915	1114.324978988552	795.909787668812	754.604145321207	861.236334055596	823.685957652656	
39	18.175571428571	645.586702663132	999.305814200516	509.245444029014	834.260755503682	1438.737464059302	355.005776033468	920.457641625311	1369.412908706695	523.762814117543	815.785496500646	1439.259397520350	687.786962262398	799.287825574926	1493.640042185367	516.469638171878	867.332350884946	940.392108448436	647.535475738453	874.417439003486	961.396835333944	373.500378798665	920.413246279274	744.659311066429	614.168430452540	842.474363963115	628.696760350277	664.888229113480	927.594851747548	583.705950050560	588.175918728152	932.263848992851	494.375436847326	592.277797665310	907.090490180680	738.070869807925	391.503117556166	818.099043157296	628.947931559403	315.113633159659	897.218200760430	540.355091700818	375.150033269471	887.878660195037	458.035128815827	368.674612039697	824.291088677952	402.046380127633	356.332389967076	689.540127002289	348.083144059134	304.047906553163	689.687116549702	215.800612726046	352.559949006132	903.517147779872	403.889472114565	594.458204824038	829.230792164068	297.999825316838	649.359010871471	874.688626854797	205.627030881792	585.587785686048	742.026118395667	41.876195552297	544.418603789998	910.759554930844	97.392650051627	590.918385435925	821.074586414676	36.357442598025	624.220471610946	1028.942011038377	47.483963628326	625.014133291228	508.887745308958	121.759010298511	388.220823783841	570.200497644417	94.019375203606	303.154370168357	672.273629603203	119.403758332107	323.170066473246	767.053405367189	33.450976342480	282.781950615864	889.737603117886	1167.974408819947	131.214860780287	1130.989618901755	1157.224875613606	36.967656801897	703.573641324910	1112.704687542167	803.241553295948	772.419490008190	862.264553095397	830.589927168390	
40	18.194928571429	644.862247340775	999.640750087258	514.472237547656	831.025112261389	1439.298989617445	358.658720356981	919.127258053713	1370.146341608760	526.626497059136	815.921684062311	1439.665600300190	691.682245826506	797.676454788332	1494.224415785771	520.474816194556	867.667218043489	940.900040013856	650.860414392409	872.755638267449	962.224459227903	376.824440396401	918.607347776583	743.994438998882	617.179626589179	839.371249808006	628.609300863479	667.659894923308	923.794291251531	583.078803870021	590.667760375476	927.384657304809	493.840019891409	594.400367303756	910.672724033395	741.011060567706	395.354687984579	825.790426059103	630.002902489426	318.228776084599	907.111885268101	542.900409669626	378.673197733890	898.849119349010	459.393246039273	371.053307064321	833.534792848576	403.633417025242	358.499534472300	696.813788784484	354.130221207433	306.622489251179	693.597018345767	221.387476359546	353.883787053982	898.472840376567	403.557364412411	596.265104690401	823.920238481162	297.640691832827	650.749661535015	869.160484651052	205.432323345722	586.411412580935	736.232609636870	41.876835445431	544.511389234090	904.996834842115	97.212825433247	591.056459339542	815.273369352414	36.343613910912	624.331313189961	1023.187782887049	47.182104437594	625.138898853282	509.865852900028	133.639098749820	389.527965064088	569.909495616125	104.192789441526	304.015789643539	673.261482204317	124.852576092119	323.918160534767	763.944867997943	34.292404276306	282.480805386797	882.510948184539	1163.503051042359	138.400786064896	1124.416999924587	1146.351310169643	46.805121734904	712.057753844888	1110.900027518730	810.486636840903	791.120962977961	863.514733856145	837.303897821734	
41	18.214285714286	644.054573670549	999.796862271217	519.558226310534	827.576190927432	1439.717325678748	362.068356482773	917.660440945844	1370.708371409141	529.167653708028	816.051358509950	1439.861817028580	695.332691553933	795.996738819439	1494.650434345625	524.304089015590	867.947687636231	941.322811260284	653.879917462079	870.900509493885	962.918966873433	379.832338444507	916.917449890177	743.390704801290	619.920574213398	836.554411415548	628.481922070258	670.232695312390	920.321084415345	582.471449695160	592.988407354045	922.945436797246	493.245154649623	596.437140556398	914.028611665099	744.052165738600	399.085334217121	833.328758374783	631.241058966362	321.178974743960	916.754742509491	545.746781353336	382.124603186407	909.662827128419	461.123081818022	373.413793584968	842.839090374730	405.432817940812	360.592775600324	704.324745167676	360.054324315401	309.264513711274	698.106753268829	226.925706912326	355.316323622378	893.745267675642	403.170975257352	597.964628918660	818.812473684100	297.316287564204	652.067602314551	863.737857977753	205.216758741559	587.181391978447	730.391371089576	41.892342007430	544.585380482691	899.194541817551	97.039506956972	591.160161090094	809.429480686497	36.339136409240	624.413280559747	1017.388386952776	46.900824856265	625.253587087977	511.943150976843	144.687636850329	391.216939479568	570.678473727377	114.105965796438	305.088333131739	675.088203535460	130.541409725389	324.741668667585	762.026720219288	35.834330840917	281.822319929005	874.488349992705	1158.621120526379	145.709346837679	1116.897497946850	1134.025782629506	57.163172930472	721.415113843444	1108.895715158709	817.473071234095	810.635872320568	864.962571100474	843.603160245795	
